<svg version="1.1" xmlns="http://www.w3.org/2000/svg" xmlns:xlink="http://www.w3.org/1999/xlink"
    x="0px" y="0px" width="50px" height="50px" viewBox="0 0 295 295" xml:space="preserve">
    <g>
        <path class="foot" fill="#abcdef" d="M250.4,214.8V288c0,1.2-0.8,2-2,2h-29.2c-1.2,0-2-0.8-2-2v-73.2c0-1.2,0.8-2,2-2h29.2
            C249.2,212.4,250.4,213.6,250.4,214.8z M250.4,108v33.2c0,1.2-0.8,2-2,2h-29.2c-1.2,0-2-0.8-2-2V108c0-1.2,0.8-2,2-2h29.2
            C249.2,106,250.4,107.2,250.4,108z M78.4,214.8V288c0,1.2-0.8,2-2,2H47.2c-1.2,0-2-0.8-2-2v-73.2c0-1.2,0.8-2,2-2h29.2
            C77.6,212.4,78.4,213.6,78.4,214.8z M78.4,108v33.2c0,1.2-0.8,2-2,2H47.2c-1.2,0-2-0.8-2-2V108c0-1.2,0.8-2,2-2h29.2
            C77.6,106,78.4,107.2,78.4,108z M58.8,5.2h5.6c4,0,7.2,1.6,10,4l0,0l0,0l0,0c2.4,2.4,4,6,4,10v15.6c0,1.2-0.8,2-2,2H47.2
            c-1.2,0-2-0.8-2-2V19.2c0-4,1.6-7.2,4-10C51.6,6.8,55.2,5.2,58.8,5.2z M230.8,5.2h5.6c4,0,7.2,1.6,10,4l0,0l0,0l0,0
            c2.4,2.4,4,6,4,10v15.6c0,1.2-0.8,2-2,2h-29.2c-1.2,0-2-0.8-2-2V19.2c0-4,1.6-7.2,4-10C223.2,6.8,226.8,5.2,230.8,5.2z" />
        <path class="board" fill="#123456" d="M12,34.8h271.2c6.4,0,12,5.2,12,12v49.6c0,6.4-5.2,12-12,12H12c-6.4,0-12-5.2-12-12V46.8
                C0,40.4,5.6,34.8,12,34.8z" />
        <path class="board" fill="#123456" d="M12,141.2h271.2c6.4,0,12,5.2,12,12v49.6c0,6.4-5.2,12-12,12H12c-6.4,0-12-5.2-12-12v-49.6
                C0,146.8,5.6,141.2,12,141.2z" />
    </g>
</svg>
